<?xml version="1.0" encoding="UTF-8" standalone="no" ?>
<!DOCTYPE svg PUBLIC "-//W3C//DTD SVG 1.1//EN" "http://www.w3.org/Graphics/SVG/1.1/DTD/svg11.dtd">
<svg xmlns="http://www.w3.org/2000/svg" xmlns:xlink="http://www.w3.org/1999/xlink" version="1.1" width="1080" height="1080" viewBox="0 0 1080 1080" xml:space="preserve">
<desc>Created with Fabric.js 5.2.4</desc>
<defs>
</defs>
<g transform="matrix(1 0 0 1 540 540)" id="0d86b03b-319c-44bb-9327-a11582bd9595"  >
<rect style="stroke: none; stroke-width: 1; stroke-dasharray: none; stroke-linecap: butt; stroke-dashoffset: 0; stroke-linejoin: miter; stroke-miterlimit: 4; fill: rgb(255,255,255); fill-rule: nonzero; opacity: 1; visibility: hidden;" vector-effect="non-scaling-stroke"  x="-540" y="-540" rx="0" ry="0" width="1080" height="1080" />
</g>
<g transform="matrix(1 0 0 1 540 540)" id="9b595d4d-7a60-47c0-ad8a-069be5bca88c"  >
</g>
<g transform="matrix(1.65 0 0 1.65 523.66 453.54)"  >
<path style="stroke: none; stroke-width: 1; stroke-dasharray: none; stroke-linecap: butt; stroke-dashoffset: 0; stroke-linejoin: miter; stroke-miterlimit: 4; fill: rgb(0,0,0); fill-rule: nonzero; opacity: 1;" vector-effect="non-scaling-stroke"  transform=" translate(-232.6, -201.67)" d="M 250.2 174.221 C 241.71699999999998 173.549 223.25799999999998 173.321 194.819 179.222 C 154.296 187.638 135.595 225.048 135.595 254.354 C 135.595 283.651 163.645 317.632 205.72899999999998 317.632 C 237.933 317.632 256.09 298.273 262.82599999999996 289.182 C 264.33399999999995 287.166 267.37999999999994 287.264 268.74899999999997 289.39000000000004 C 270.41799999999995 291.992 272.79499999999996 295.44000000000005 275.86299999999994 299.23600000000005 C 279.15099999999995 303.31500000000005 283.54299999999995 307.38300000000004 287.09999999999997 310.4320000000001 C 290.53799999999995 313.3810000000001 295.65799999999996 313.20900000000006 298.945 310.09600000000006 L 326.84 283.52000000000004 C 330.072 280.44100000000003 330.51899999999995 275.451 327.86999999999995 271.86100000000005 C 326.33199999999994 269.778 324.39099999999996 267.088 321.99199999999996 263.7060000000001 C 314.50899999999996 253.10700000000008 314.823 244.6910000000001 314.823 244.6910000000001 L 314.823 146.18200000000007 C 314.823 134.33900000000008 307.654 85.71400000000007 232.21599999999998 85.71400000000007 C 170.60999999999999 85.71400000000007 151.83399999999997 129.57700000000006 147.01899999999998 145.66300000000007 C 146.09699999999998 148.74200000000008 148.10199999999998 151.91100000000006 151.26999999999998 152.44100000000006 L 189.52499999999998 158.90500000000006 C 191.84599999999998 159.29700000000005 194.15699999999998 158.13600000000005 195.19799999999998 156.02000000000007 C 199.396 147.52900000000005 211.58899999999997 126.85400000000007 230.65599999999998 126.85400000000007 C 254.66899999999998 126.86500000000007 255.60199999999998 146.49900000000008 255.60199999999998 146.49900000000008 L 255.60199999999998 169.19900000000007 C 255.601 172.127 253.13 174.449 250.2 174.221 z M 256.231 210.654 L 256.231 239.376 C 256.231 254.376 245.904 267.523 231.263 270.775 C 227.476 271.62199999999996 223.149 272.121 218.19 272.121 C 186.4 272.121 192.322 231.284 206.975 219.12499999999997 C 218.082 209.90599999999998 240.642 206.78199999999998 250.916 205.81599999999997 C 253.768 205.545 256.231 207.791 256.231 210.654 z" stroke-linecap="round" />
</g>
<g transform="matrix(1.65 0 0 1.65 742.91 683.97)"  >
<path style="stroke: none; stroke-width: 1; stroke-dasharray: none; stroke-linecap: butt; stroke-dashoffset: 0; stroke-linejoin: miter; stroke-miterlimit: 4; fill: rgb(0,0,0); fill-rule: nonzero; opacity: 1;" vector-effect="non-scaling-stroke"  transform=" translate(-365.51, -341.37)" d="M 345.529 330.171 C 360.962 328.305 367.743 326.364 372.416 330.496 C 377.092 334.62 375.454 343.036 372.416 352.623 C 369.381 362.2 361.876 370.194 369.142 374.131 C 377.633 378.729 410.326 336.45099999999996 396.734 315.45099999999996 C 385.433 297.98799999999994 338.046 317.55499999999995 334.542 319.888 C 331.03799999999995 322.23199999999997 331.03799999999995 325.02799999999996 331.03799999999995 325.02799999999996 C 331.03799999999995 325.02799999999996 330.105 332.048 345.529 330.171 z" stroke-linecap="round" />
</g>
<g transform="matrix(1.65 0 0 1.65 507.86 712.34)"  >
<path style="stroke: none; stroke-width: 1; stroke-dasharray: none; stroke-linecap: butt; stroke-dashoffset: 0; stroke-linejoin: miter; stroke-miterlimit: 4; fill: rgb(0,0,0); fill-rule: nonzero; opacity: 1;" vector-effect="non-scaling-stroke"  transform=" translate(-223.01, -358.57)" d="M 228.495 399.286 C 285.525 399.286 309.53 387.452 334.16200000000003 373.74 C 358.783 360.021 363.45900000000006 349.738 360.03200000000004 343.305 C 356.60300000000007 336.874 342.56700000000006 343.502 330.105 348.795 C 317.632 354.099 279.3 368.754 224.12400000000002 368.754 C 168.94800000000004 368.754 113.45900000000002 329.78000000000003 101.61400000000002 321.528 C 89.76900000000002 313.262 85.56200000000001 321.528 85.56200000000001 321.528 C 85.56200000000001 321.528 81.98300000000002 328.38100000000003 92.89500000000001 341.79 C 103.794 355.195 159.197 399.286 228.495 399.286 z" stroke-linecap="round" />
</g>
<g transform="matrix(2.81 0 0 2.81 540 494.99)"  >
<path style="stroke: none; stroke-width: 1; stroke-dasharray: none; stroke-linecap: butt; stroke-dashoffset: 0; stroke-linejoin: miter; stroke-miterlimit: 4; fill: rgb(0,0,0); fill-rule: nonzero; opacity: 1;" vector-effect="non-scaling-stroke"  transform=" translate(-242.5, -242.5)" d="M 0 0 L 0 485 L 485 485 L 485 0 L 0 0 z M 455 455 L 30 455 L 30 30 L 455 30 L 455 455 z" stroke-linecap="round" />
</g>
</svg>