<?xml version="1.0" encoding="UTF-8" standalone="no" ?>
<!DOCTYPE svg PUBLIC "-//W3C//DTD SVG 1.1//EN" "http://www.w3.org/Graphics/SVG/1.1/DTD/svg11.dtd">
<svg xmlns="http://www.w3.org/2000/svg" xmlns:xlink="http://www.w3.org/1999/xlink" version="1.1" width="1080" height="1080" viewBox="0 0 1080 1080" xml:space="preserve">
<desc>Created with Fabric.js 5.2.4</desc>
<defs>
</defs>
<g transform="matrix(1 0 0 1 540 540)" id="5fd0a9ee-56db-4c08-8420-e51b881dd997"  >
<rect style="stroke: none; stroke-width: 1; stroke-dasharray: none; stroke-linecap: butt; stroke-dashoffset: 0; stroke-linejoin: miter; stroke-miterlimit: 4; fill: rgb(255,255,255); fill-rule: nonzero; opacity: 1; visibility: hidden;" vector-effect="non-scaling-stroke"  x="-540" y="-540" rx="0" ry="0" width="1080" height="1080" />
</g>
<g transform="matrix(1 0 0 1 540 540)" id="4b8193c0-7587-4b93-927c-4fd46a4eef6b"  >
</g>
<g transform="matrix(1 0 0 1 540 540)"  >
<g style="" vector-effect="non-scaling-stroke"   >
		<g transform="matrix(8.08 0 0 8.08 -274.68 68.74)"  >
<path style="stroke: none; stroke-width: 1; stroke-dasharray: none; stroke-linecap: butt; stroke-dashoffset: 0; stroke-linejoin: miter; stroke-miterlimit: 4; fill: rgb(66,133,244); fill-rule: nonzero; opacity: 1;" vector-effect="non-scaling-stroke"  transform=" translate(-10, -41.52)" d="M 6 66.0162 L 20 66.0162 L 20 32.0162 L 0 17.016199999999998 L 0 60.0162 C 0 63.331199999999995 2.685 66.0162 6 66.0162 z" stroke-linecap="round" />
</g>
		<g transform="matrix(8.08 0 0 8.08 274.68 68.74)"  >
<path style="stroke: none; stroke-width: 1; stroke-dasharray: none; stroke-linecap: butt; stroke-dashoffset: 0; stroke-linejoin: miter; stroke-miterlimit: 4; fill: rgb(52,168,83); fill-rule: nonzero; opacity: 1;" vector-effect="non-scaling-stroke"  transform=" translate(-78, -41.52)" d="M 68 66.0162 L 82 66.0162 C 85.315 66.0162 88 63.331199999999995 88 60.0162 L 88 17.016199999999998 L 68 32.0162 z" stroke-linecap="round" />
</g>
		<g transform="matrix(8.08 0 0 8.08 274.68 -137.34)"  >
<path style="stroke: none; stroke-width: 1; stroke-dasharray: none; stroke-linecap: butt; stroke-dashoffset: 0; stroke-linejoin: miter; stroke-miterlimit: 4; fill: rgb(251,188,4); fill-rule: nonzero; opacity: 1;" vector-effect="non-scaling-stroke"  transform=" translate(-78, -16.01)" d="M 68 6.0162 L 68 32.0162 L 88 17.016199999999998 L 88 9.016199999999998 C 88 1.6011999999999977 79.535 -2.6338000000000026 73.6 1.8161999999999976 z" stroke-linecap="round" />
</g>
		<g transform="matrix(8.08 0 0 8.08 0 -40.33)"  >
<path style="stroke: none; stroke-width: 1; stroke-dasharray: none; stroke-linecap: butt; stroke-dashoffset: 0; stroke-linejoin: miter; stroke-miterlimit: 4; fill: rgb(234,67,53); fill-rule: nonzero; opacity: 1;" vector-effect="non-scaling-stroke"  transform=" translate(-44, -28.02)" d="M 20 32.0162 L 20 6.016199999999998 L 44 24.016199999999998 L 68 6.016199999999998 L 68 32.0162 L 44 50.0162 z" stroke-linecap="round" />
</g>
		<g transform="matrix(8.08 0 0 8.08 -274.68 -137.34)"  >
<path style="stroke: none; stroke-width: 1; stroke-dasharray: none; stroke-linecap: butt; stroke-dashoffset: 0; stroke-linejoin: miter; stroke-miterlimit: 4; fill: rgb(197,34,31); fill-rule: nonzero; opacity: 1;" vector-effect="non-scaling-stroke"  transform=" translate(-10, -16.01)" d="M 0 9.0162 L 0 17.016199999999998 L 20 32.0162 L 20 6.016199999999998 L 14.4 1.8161999999999976 C 8.465 -2.6338000000000026 0 1.6011999999999975 0 9.016199999999998 z" stroke-linecap="round" />
</g>
</g>
</g>
</svg>